<svg width="130" height="23" viewBox="0 0 130 23" fill="none" xmlns="http://www.w3.org/2000/svg">
<path d="M29.3122 18.292V3.29759H38.918V5.57457H32.0285V9.64531H38.2591V11.9223H32.0285V18.292H29.3122Z" fill="#CECBE2"/>
<path d="M47.2015 3.29759V18.292H44.4852V3.29759H47.2015Z" fill="#CECBE2"/>
<path d="M65.5575 3.29759V18.292H63.1414L56.0762 8.07851H55.9518V18.292H53.2355V3.29759H55.6662L62.7241 13.5184H62.8559V3.29759H65.5575Z" fill="#CECBE2"/>
<path d="M71.6098 18.292V3.29759H81.362V5.57457H74.3261V9.64531H80.8568V11.9223H74.3261V16.015H81.4206V18.292H71.6098Z" fill="#CECBE2"/>
<path d="M95.3746 7.41958C95.3062 6.78017 95.0183 6.28231 94.5106 5.926C94.0079 5.56969 93.3538 5.39153 92.5485 5.39153C91.9823 5.39153 91.4966 5.47695 91.0915 5.64778C90.6864 5.81862 90.3764 6.05046 90.1617 6.34332C89.9469 6.63618 89.8371 6.97053 89.8322 7.34637C89.8322 7.65875 89.903 7.92964 90.0445 8.15905C90.191 8.38845 90.3887 8.58369 90.6376 8.74476C90.8865 8.90096 91.1623 9.03274 91.4649 9.14012C91.7675 9.24751 92.0726 9.3378 92.3801 9.41102L93.7858 9.76245C94.352 9.89424 94.8962 10.0724 95.4185 10.2969C95.9456 10.5214 96.4167 10.8045 96.8315 11.1462C97.2513 11.4879 97.5832 11.9003 97.8273 12.3835C98.0713 12.8668 98.1933 13.4329 98.1933 14.0821C98.1933 14.9607 97.9688 15.7343 97.5198 16.403C97.0707 17.0668 96.4215 17.5867 95.5722 17.9625C94.7278 18.3334 93.7053 18.5189 92.5046 18.5189C91.338 18.5189 90.3252 18.3383 89.4661 17.9771C88.612 17.6159 87.9433 17.0888 87.4601 16.3957C86.9817 15.7026 86.723 14.8582 86.684 13.8625H89.3563C89.3954 14.3847 89.5564 14.8191 89.8395 15.1657C90.1226 15.5122 90.4912 15.7709 90.9451 15.9418C91.4039 16.1126 91.9164 16.198 92.4826 16.198C93.0732 16.198 93.5906 16.1102 94.0347 15.9344C94.4838 15.7539 94.8352 15.5049 95.089 15.1877C95.3428 14.8655 95.4722 14.4897 95.4771 14.0602C95.4722 13.6697 95.3575 13.3475 95.133 13.0937C94.9084 12.835 94.5936 12.6203 94.1885 12.4494C93.7883 12.2737 93.3197 12.1175 92.7828 11.9809L91.0769 11.5416C89.842 11.2243 88.8658 10.7435 88.1483 10.0992C87.4357 9.45007 87.0793 8.58857 87.0793 7.51476C87.0793 6.6313 87.3185 5.85767 87.7969 5.19385C88.2801 4.53004 88.9366 4.0151 89.7663 3.64902C90.5961 3.27807 91.5357 3.09259 92.5851 3.09259C93.6491 3.09259 94.5814 3.27807 95.3819 3.64902C96.1872 4.0151 96.8193 4.52516 97.2782 5.17921C97.737 5.82838 97.9737 6.57517 97.9883 7.41958H95.3746Z" fill="#CECBE2"/>
<path d="M111.856 7.41958C111.788 6.78017 111.5 6.28231 110.992 5.926C110.49 5.56969 109.836 5.39153 109.03 5.39153C108.464 5.39153 107.978 5.47695 107.573 5.64778C107.168 5.81862 106.858 6.05046 106.643 6.34332C106.429 6.63618 106.319 6.97053 106.314 7.34637C106.314 7.65875 106.385 7.92964 106.526 8.15905C106.673 8.38845 106.87 8.58369 107.119 8.74476C107.368 8.90096 107.644 9.03274 107.947 9.14012C108.249 9.24751 108.554 9.3378 108.862 9.41102L110.268 9.76245C110.834 9.89424 111.378 10.0724 111.9 10.2969C112.427 10.5214 112.898 10.8045 113.313 11.1462C113.733 11.4879 114.065 11.9003 114.309 12.3835C114.553 12.8668 114.675 13.4329 114.675 14.0821C114.675 14.9607 114.451 15.7343 114.001 16.403C113.552 17.0668 112.903 17.5867 112.054 17.9625C111.21 18.3334 110.187 18.5189 108.986 18.5189C107.82 18.5189 106.807 18.3383 105.948 17.9771C105.094 17.6159 104.425 17.0888 103.942 16.3957C103.463 15.7026 103.205 14.8582 103.166 13.8625H105.838C105.877 14.3847 106.038 14.8191 106.321 15.1657C106.604 15.5122 106.973 15.7709 107.427 15.9418C107.886 16.1126 108.398 16.198 108.964 16.198C109.555 16.198 110.072 16.1102 110.516 15.9344C110.966 15.7539 111.317 15.5049 111.571 15.1877C111.825 14.8655 111.954 14.4897 111.959 14.0602C111.954 13.6697 111.839 13.3475 111.615 13.0937C111.39 12.835 111.075 12.6203 110.67 12.4494C110.27 12.2737 109.801 12.1175 109.264 11.9809L107.559 11.5416C106.324 11.2243 105.348 10.7435 104.63 10.0992C103.917 9.45007 103.561 8.58857 103.561 7.51476C103.561 6.6313 103.8 5.85767 104.279 5.19385C104.762 4.53004 105.418 4.0151 106.248 3.64902C107.078 3.27807 108.017 3.09259 109.067 3.09259C110.131 3.09259 111.063 3.27807 111.864 3.64902C112.669 4.0151 113.301 4.52516 113.76 5.17921C114.219 5.82838 114.455 6.57517 114.47 7.41958H111.856Z" fill="#CECBE2"/>
<path d="M120.189 18.292V3.29759H129.941V5.57457H122.905V9.64531H129.436V11.9223H122.905V16.015H130V18.292H120.189Z" fill="#CECBE2"/>
<path fill-rule="evenodd" clip-rule="evenodd" d="M0 4.51806L11.6179 0V2.58175L2.58175 6.13165V8.7134L11.6179 5.16349V18.0722L0 22.5903V20.0085L9.03611 16.4586V13.8769L0 17.4268V4.51806ZM2.58175 11.2951L9.03612 8.7134V11.2951L2.58175 13.8769V11.2951Z" fill="#9056F7"/>
</svg>
